# xmcd CD database file
#
# Track frame offsets:
#	150
#	17856
#	34719
#	53195
#	71842
#	95203
#	113182
#	132430
#	151328
#	172973
#	190202
#	212795
#	231500
#
# Disc length: 3092 seconds
#
# Revision: 0
# Processed by: cddbd v1.5.2PL0 Copyright (c) Steve Scherf et al.
# Submitted via: CDex 1.51
#
DISCID=be0c120d
DTITLE=JOhnson, Carolyn Dawn - Love Rules
DYEAR=2010
DGENRE=Country
TTITLE0=Let Me Introduce Myself
TTITLE1=Whole Thing, The
TTITLE2=I'd Still Have You
TTITLE3=Stop for Me
TTITLE4=Reach You
TTITLE5=Hangin' On
TTITLE6=What If
TTITLE7=Bitterness
TTITLE8=I Just Want My Life Back
TTITLE9=All the Time
TTITLE10=Teach Me
TTITLE11=Love Rules
TTITLE12=All Done
EXTD=YEAR: 2010
EXTT0=
EXTT1=
EXTT2=
EXTT3=
EXTT4=
EXTT5=
EXTT6=
EXTT7=
EXTT8=
EXTT9=
EXTT10=
EXTT11=
EXTT12=
PLAYORDER=
